<svg width="56" height="48" viewBox="0 0 56 48" fill="none" xmlns="http://www.w3.org/2000/svg">
<path d="M49.9018 42.3221H6.3922C5.15878 42.3221 4.15887 41.3626 4.15887 40.1791V5.17557C4.15887 3.99203 5.15878 3.03256 6.3922 3.03256H49.9018C51.1352 3.03256 52.1351 3.99203 52.1351 5.17557V40.179C52.1352 41.3626 51.1353 42.3221 49.9018 42.3221Z" fill="#58AFEF"/>
<path d="M49.9018 3.03447H45.5613C46.7947 3.03447 47.7946 3.99394 47.7946 5.17749V40.1809C47.7946 41.3644 46.7947 42.3239 45.5613 42.3239H49.9018C51.1352 42.3239 52.1352 41.3644 52.1352 40.1809V5.17759C52.1353 3.99394 51.1354 3.03447 49.9018 3.03447Z" fill="#35A0EE"/>
<path d="M53.7666 8.70902H26.2477L20.7648 0.941314C20.3493 0.352639 19.6567 0 18.9156 0H2.23344C0.999906 0 0 0.959471 0 2.14301V45.8555C0 47.0391 0.999906 47.9985 2.23344 47.9985H53.7666C55 47.9985 56 47.0391 56 45.8555V10.852C56 9.66849 55.0001 8.70902 53.7666 8.70902Z" fill="#9DD3FB"/>
<path d="M53.7667 8.71119H49.4261C50.6596 8.71119 51.6595 9.67067 51.6595 10.8542V45.8577C51.6595 47.0412 50.6596 48.0007 49.4261 48.0007H53.7667C55.0001 48.0007 56 47.0412 56 45.8577V10.8542C56 9.67067 55.0001 8.71119 53.7667 8.71119Z" fill="#83C6F8"/>
</svg>
