<svg width="16" height="16" viewBox="0 0 16 16" fill="none" xmlns="http://www.w3.org/2000/svg">
<path fill-rule="evenodd" clip-rule="evenodd" d="M7.95533 0C4.07088 0 1 2.05024 1 6.42666C1 10.0136 5.67229 14.3308 7.35798 15.7716C7.70616 16.0693 8.20592 16.0714 8.55649 15.7766C10.2605 14.3436 15 10.0338 15 6.42666C14.9999 2.88299 11.8397 0 7.95533 0ZM8.00033 9.29504C9.28899 9.29504 10.3337 8.25464 10.3337 6.97124C10.3337 5.68785 9.28899 4.64745 8.00033 4.64745C6.71166 4.64745 5.66699 5.68785 5.66699 6.97124C5.66699 8.25464 6.71166 9.29504 8.00033 9.29504Z" fill="#07111B"/>
</svg>
